<?xml version="1.0" encoding="UTF-8"?>
<!DOCTYPE svg PUBLIC "-//W3C//DTD SVG 1.1//EN" "http://www.w3.org/Graphics/SVG/1.1/DTD/svg11.dtd">
<!-- Creator: CorelDRAW -->

<svg xmlns="http://www.w3.org/2000/svg" xml:space="preserve" width="114.99998" height="80" version="1.1" style="shape-rendering:geometricPrecision; text-rendering:geometricPrecision; image-rendering:optimizeQuality; fill-rule:evenodd; clip-rule:evenodd"
viewBox="7000 10000 8000 4000"
 xmlns:xlink="http://www.w3.org/1999/xlink"
 xmlns:xodm="http://www.corel.com/coreldraw/odm/2003">
 <defs>
  <style type="text/css">
   <![CDATA[
    .str0 {stroke:var(--logo-color, black);stroke-width:10;stroke-miterlimit:22.9256}
    .fil0 {fill:var(--logo-color, black)}
   ]]>
  </style>
 </defs>
 <g id="Capa_x0020_1">
  <metadata id="CorelCorpID_0Corel-Layer"/>
  <polygon class="fil0 str0" points="12136.87,12999.8 12754.94,12999.8 12754.94,11450.4 13059.74,11450.4 13059.74,11763.66 13364.54,11763.66 13364.54,12068.46 13669.34,12068.46 13669.34,12999.8 14304.34,12999.8 14304.34,10205.79 13669.34,10205.79 13669.34,11450.4 13373,11450.4 13373,11137.13 13068.2,11137.13 13068.2,10832.33 12754.94,10832.33 12754.94,10205.79 12136.87,10205.79 "/>
  <polygon class="fil0 str0" points="7192.33,12999.8 7810.4,12999.8 7810.4,11763.66 8115.2,11763.66 8115.2,12381.73 8428.46,12381.73 8428.46,12999.8 9046.53,12999.8 9046.53,12373.26 8741.73,12373.26 8741.73,11755.2 8428.46,11755.2 8428.46,11450.4 8741.73,11450.4 8741.73,10832.33 9046.53,10832.33 9046.53,10214.26 8420,10214.26 8420,10823.86 8106.73,10823.86 8106.73,11441.93 7810.4,11441.93 7810.4,10214.26 7192.33,10214.26 "/>
  <path class="fil0 str0" d="M9969.4 11755.2l-304.8 0 0 626.53 1236.13 0 0 618.07 618.07 0 0 -618.07 287.87 0c19.51,0 25.4,-5.89 25.4,-25.4l0 -287.87 -313.27 0 0 -1236.13 -618.07 0 0 1236.13 -618.06 0 0 -304.8 313.26 0 0 -1549.4 -626.53 0 0 1540.94z"/>
  <path class="fil0 str0" d="M10595.93 13558.6l118.54 0 0 296.33 -118.54 0 0 -296.33zm118.54 -76.2l-186.27 0 0 67.73 -67.73 0 0 313.27 67.73 0 0 59.27 313.27 0 0 -558.8 -127 0 0 118.53z"/>
  <polygon class="fil0 str0" points="9969.4,13863.4 10028.67,13863.4 10028.67,13922.67 10350.4,13922.67 10350.4,13482.4 10214.93,13482.4 10214.93,13854.93 10096.4,13854.93 10096.4,13482.4 9969.4,13482.4 "/>
  <path class="fil0 str0" d="M11586.53 13558.6l110.07 0 0 296.33 -110.07 0 0 -296.33zm-67.73 -8.47l-67.73 0 0 313.27 67.73 0 0 59.27 245.53 0 0 -59.27 67.74 0 0 -313.27 -67.74 0 0 -67.73 -245.53 0 0 67.73z"/>
  <polygon class="fil0 str0" points="9537.6,13482.4 9478.33,13482.4 9478.33,13558.6 9537.6,13558.6 9537.6,13863.4 9596.86,13863.4 9596.86,13922.67 9850.87,13922.67 9850.87,13854.93 9664.6,13854.93 9664.6,13558.6 9850.87,13558.6 9850.87,13482.4 9664.6,13482.4 9664.6,13363.87 9537.6,13363.87 "/>
  <polygon class="fil0 str0" points="9046.53,13550.13 8978.8,13550.13 8978.8,13677.13 9046.53,13677.13 9046.53,13736.4 9232.8,13736.4 9232.8,13854.93 8978.8,13854.93 8978.8,13922.67 9300.53,13922.67 9300.53,13863.4 9359.8,13863.4 9359.8,13736.4 9300.53,13736.4 9300.53,13668.67 9114.26,13668.67 9114.26,13558.6 9359.8,13558.6 9359.8,13482.4 9046.53,13482.4 "/>
  <polygon class="fil0 str0" points="12009.87,13550.13 11950.6,13550.13 11950.6,13677.13 12009.87,13677.13 12009.87,13736.4 12196.14,13736.4 12196.14,13854.93 11950.6,13854.93 11950.6,13922.67 12263.87,13922.67 12263.87,13863.4 12323.14,13863.4 12323.14,13736.4 12263.87,13736.4 12263.87,13668.67 12077.6,13668.67 12077.6,13558.6 12323.14,13558.6 12323.14,13482.4 12009.87,13482.4 "/>
  <polygon class="fil0 str0" points="10960,13558.6 11078.53,13558.6 11078.53,13854.93 10960,13854.93 10960,13922.67 11332.53,13922.67 11332.53,13854.93 11214,13854.93 11214,13482.4 10960,13482.4 "/>
  <polygon class="fil0 str0" points="11078.53,13431.6 11214,13431.6 11214,13296.13 11078.53,13296.13 "/>
 </g>
</svg>